<svg xmlns="http://www.w3.org/2000/svg" viewBox="0 0 1327.41 188.17"><defs><style>.cls-1{fill:#fff;}</style></defs><title>whiteyet-integrations-logo_1</title><g id="Layer_2" data-name="Layer 2"><g id="Layer_1-2" data-name="Layer 1"><path class="cls-1" d="M7,62.66l4.24,5.56,8,10.5-8,10.5L7,94.78V62.66M0,42v73.53L12.39,99.26l4.42-5.8L28,78.72,16.81,64l-4.42-5.79L0,42ZM11.94,7l7.34,9.62,3.37,4.43L43,47.64,38.88,53,22.37,31.36,18,25.57,7,11.22V7h4.94m3.46-7H0V13.58L12.39,29.81l4.42,5.79L38.88,64.53,51.76,47.64,28.23,16.81l-3.37-4.42L15.41,0ZM62.58,73.37l42.57,55.82,3.37,4.41.87,1.14h-8.16l-7.35-9.63-3.37-4.42-32-42,4.08-5.35m0-11.54L49.7,78.72l35.25,46.22,3.37,4.42,9.45,12.39h25.77l-9.44-12.39-3.38-4.42L62.58,61.83ZM134.78,7V116.57L130.54,111,55.44,12.56,52.06,8.14,51.2,7h83.59m7-7H37.05L46.5,12.38l3.37,4.42L125,115.26l4.42,5.8,12.39,16.23V0ZM38.88,104.45l18.87,24.74,3.37,4.41.87,1.14H15.77L18,131.87l4.42-5.8,16.51-21.63m0-11.54L16.81,121.83l-4.42,5.8L1.62,141.74h74.5l-9.44-12.39-3.38-4.42-24.43-32ZM242.51.93V39.47c0,27-18.77,43.78-38.94,43.78v58.92H195.1V83.26c-20.18,0-38.94-16.75-38.94-43.78V.93h8.47V40.08c0,21.39,14.53,35.51,34.7,35.51S234,61.46,234,40.08V.93Zm18.36,106.94,61.54-41.56a39.1,39.1,0,0,0-30.87-14.53C267.13,51.78,250,72.16,250,95c0,22.6,17.76,42,41.56,42,23.2,0,41.56-18.76,42-40.55h8.07c-.6,25.42-21.39,47.82-48.42,47.82-29.86,0-51.25-21.59-51.25-49.63,0-27,20.18-50,49.63-50a49.78,49.78,0,0,1,42.57,23.41l-68.4,46.41ZM363,46.53h33.9V53.8H363v61.74c0,12.11,7.26,19.37,18.56,19.37h15.33v7.26H383.15c-18.16,0-27.84-10.49-27.84-27.44V20.3H363Zm89.59,95.64V.93H461V142.17Zm94.22,0V84.87c0-20-13.92-33.09-30.67-33.09S485.44,64.9,485.44,84.87v57.3h-7.67V83.86c0-23.61,16.95-39.34,38.34-39.34s38.34,15.74,38.34,39.34v58.31Zm27.84-95.64h33.9V53.8h-33.9v61.74c0,12.11,7.26,19.37,18.56,19.37h15.33v7.26H594.8c-18.16,0-27.84-10.49-27.84-27.44V20.3h7.67Zm52.86,61.34L689,66.31a39.1,39.1,0,0,0-30.87-14.53c-24.41,0-41.56,20.38-41.56,43.18,0,22.6,17.76,42,41.56,42,23.2,0,41.56-18.76,42-40.55h8.07c-.6,25.42-21.39,47.82-48.42,47.82-29.86,0-51.25-21.59-51.25-49.63,0-27,20.18-50,49.63-50a49.78,49.78,0,0,1,42.57,23.41l-68.4,46.41Zm110.57,68.2a69.94,69.94,0,0,0,24.21,4.84c25.83,0,41.36-11.7,41.36-45.2V94.35c0-22.19-15.94-42.57-38.94-42.57-19.37,0-38.54,18-38.54,42.57s19.17,42.57,38.54,42.57c12.71,0,21.59-5.25,29.86-13.92v9.08c-5.85,4.84-15.13,12.11-29.86,12.11-26,0-46.61-21-46.61-49.84s20.58-49.84,46.61-49.84,46.61,21,46.61,49.84V141c0,29.86-20.18,47.21-48,47.21a80.55,80.55,0,0,1-27.64-4.84Zm90-33.9V46.53h7.67V64.9h.4c4.44-9.69,15.74-18.36,28.25-18.36h8.88V53.8h-8.07c-14.93,0-29.46,15.74-29.46,38.34v50Zm128.93,0V94.35C957,72.16,941,51.78,918,51.78c-19.37,0-38.54,18-38.54,42.57s19.17,42.57,38.54,42.57c12.71,0,21.59-5.25,29.86-13.92v9.08c-5.85,4.84-15.13,12.11-29.86,12.11-26,0-46.61-21-46.61-49.84S892,44.52,918,44.52s46.61,21,46.61,49.84v47.82Zm31.27-95.64h33.9V53.8h-33.9v61.74c0,12.11,7.26,19.37,18.56,19.37h15.33v7.26h-13.72c-18.16,0-27.84-10.49-27.84-27.44V20.3h7.67Zm51.45-33.09a6,6,0,0,1,6.05,6.05,6.05,6.05,0,1,1-12.11,0A5.94,5.94,0,0,1,1039.7,13.44Zm-3.83,128.73V46.53h7.67v95.64ZM1155.1,94.35c0,27-21,49.84-48.42,49.84s-48.42-22.8-48.42-49.84,21-49.84,48.42-49.84S1155.1,67.32,1155.1,94.35Zm-88.78,0c0,22.19,16.95,42.57,40.35,42.57S1147,116.55,1147,94.35s-16.95-42.57-40.35-42.57S1066.33,72.16,1066.33,94.35Zm169.48,47.82V84.87c0-20-13.92-33.09-30.67-33.09s-30.67,13.12-30.67,33.09v57.3h-7.67V83.86c0-23.61,16.95-39.34,38.34-39.34s38.34,15.74,38.34,39.34v58.31Zm17.15-7.26h42.77c16.75,0,23.2-6.46,23.2-16.14,0-31.88-66.18-13.32-66.18-49,0-12.51,8.68-23.2,24.41-23.2h43V53.8h-42.37c-8.27,0-16.54,5.25-16.54,15.74,0,28.25,66.18,10.29,66.18,48,0,16.75-12.31,24.62-33.49,24.62h-41Z"/></g></g></svg>